<?xml version="1.0" standalone="no"?>
<!DOCTYPE svg PUBLIC "-//W3C//DTD SVG 20010904//EN"
 "http://www.w3.org/TR/2001/REC-SVG-20010904/DTD/svg10.dtd">
<svg version="1.0" xmlns="http://www.w3.org/2000/svg"
 width="1280.000000pt" height="640.000000pt" viewBox="0 0 1280.000000 640.000000"
 preserveAspectRatio="xMidYMid meet">
<metadata>
Created by potrace 1.15, written by Peter Selinger 2001-2017
</metadata>
<g transform="translate(0.000000,640.000000) scale(0.100000,-0.100000)"
fill="#000000" stroke="none">
<path d="M4025 4900 c-49 -4 -107 -12 -127 -19 -37 -12 -88 -61 -88 -84 0 -15
-108 -274 -145 -347 -43 -86 -48 -90 -125 -90 -42 0 -71 -5 -78 -12 -5 -7 -16
-42 -24 -78 l-14 -65 -1615 -3 c-936 -1 -1625 2 -1640 7 -61 21 -128 -24 -150
-100 -16 -51 -15 -340 1 -829 12 -352 25 -501 47 -548 9 -19 34 -46 56 -60 37
-24 49 -27 126 -26 69 1 114 9 226 42 207 61 984 324 1895 640 173 60 440 116
700 147 30 4 82 13 115 21 173 40 351 -5 425 -108 25 -35 30 -50 30 -100 0
-67 -21 -149 -48 -190 -10 -15 -57 -71 -104 -125 -47 -54 -151 -173 -230 -264
-78 -91 -183 -211 -231 -267 -100 -114 -107 -140 -51 -177 17 -11 156 -63 309
-114 293 -98 316 -102 373 -65 17 11 22 24 22 57 -1 23 -7 56 -14 72 -16 35
-32 3 195 386 154 260 159 267 193 271 28 3 36 0 40 -15 4 -18 11 -19 78 -13
51 5 79 13 94 27 20 19 34 19 285 16 145 -2 278 -7 295 -11 l31 -8 7 -151 c9
-189 39 -476 67 -627 32 -174 138 -527 177 -587 5 -9 24 -7 77 7 39 10 222 55
408 100 389 95 367 81 323 200 -90 242 -206 867 -206 1106 l0 90 37 10 c46 11
51 27 19 57 l-26 24 0 205 c0 169 3 208 15 218 8 7 41 15 72 19 68 8 83 15 83
42 0 12 7 19 20 19 16 0 20 -7 20 -35 0 -19 3 -35 6 -35 18 0 205 63 209 71
13 21 33 7 40 -28 10 -52 21 -71 58 -93 31 -20 68 -20 1903 -20 1865 0 1870 0
1892 20 12 11 24 31 28 44 4 18 11 22 28 19 17 -4 29 3 45 25 11 17 21 39 21
49 0 38 19 43 155 43 182 0 175 3 175 -84 0 -114 1 -116 76 -116 58 0 64 2 64
20 0 18 6 20 40 18 52 -3 80 22 80 72 0 43 -21 66 -65 73 -16 3 302 3 709 1
406 -3 744 -8 752 -11 7 -3 16 -13 19 -24 8 -23 53 -26 61 -4 4 8 10 15 15 15
5 0 9 -7 9 -15 0 -10 11 -15 35 -15 24 0 35 5 35 15 0 8 7 15 15 15 9 0 18 -7
21 -15 7 -17 50 -20 60 -4 4 7 59 10 165 8 87 -2 162 0 166 5 4 4 8 62 8 129
l0 122 -162 5 c-110 3 -166 9 -175 18 -17 17 -49 15 -64 -5 -13 -17 -15 -17
-25 0 -12 20 -65 23 -72 5 -3 -10 -9 -10 -26 0 -31 18 -49 15 -74 -13 l-22
-25 -730 11 c-627 10 -732 14 -747 27 -17 14 -18 43 -18 346 0 358 -2 372 -53
389 -21 7 -41 4 -82 -13 -47 -19 -69 -39 -159 -144 -212 -247 -243 -285 -256
-315 -11 -28 -30 -42 -30 -23 0 4 -13 15 -28 24 -35 21 -167 34 -487 48 -132
6 -319 15 -415 20 -304 17 -1010 49 -1430 65 -469 18 -793 31 -1074 45 -109 6
-239 10 -288 10 -85 0 -91 -1 -118 -29 -19 -18 -32 -44 -36 -70 -7 -43 -17
-50 -43 -27 -15 13 -176 66 -200 66 -6 0 -11 -18 -11 -41 0 -33 -3 -40 -17
-37 -16 3 -19 21 -23 168 -6 182 -13 205 -83 267 -67 58 -67 58 -837 153 -655
81 -828 103 -880 114 -8 1 -55 0 -105 -4z m6479 -516 c11 -11 16 -35 16 -80
l0 -64 35 0 35 0 0 -83 c0 -51 -5 -88 -12 -95 -13 -13 -185 -16 -301 -5 -58 5
-68 9 -73 27 -9 37 15 78 94 161 42 44 91 97 109 118 34 40 70 48 97 21z m4
-475 c2 -14 -14 -16 -133 -18 -74 -1 -135 0 -135 3 0 2 3 12 6 20 5 14 24 16
133 14 106 -3 126 -6 129 -19z"/>
</g>
</svg>
